<?xml version="1.0" standalone="no"?>
<!DOCTYPE svg PUBLIC "-//W3C//DTD SVG 20010904//EN" "http://www.w3.org/TR/2001/REC-SVG-20010904/DTD/svg10.dtd">
<!-- Created using Krita: https://krita.org -->
<svg xmlns="http://www.w3.org/2000/svg" 
    xmlns:xlink="http://www.w3.org/1999/xlink"
    xmlns:krita="http://krita.org/namespaces/svg/krita"
    xmlns:sodipodi="http://sodipodi.sourceforge.net/DTD/sodipodi-0.dtd"
    width="48pt"
    height="192pt"
    viewBox="0 0 48 192">
<defs/>
<path id="shape0" transform="translate(4.03026343619829, 14.8290475974142)" fill="none" stroke="#781e1e" stroke-width="0.36" stroke-linecap="square" stroke-linejoin="bevel" d="M0 0C0.813962 0.0169559 1.49897 2.63473 3.58085 2.6781" sodipodi:nodetypes="cc"/><path id="shape1" transform="translate(7.61111405518759, 12.192230001805)" fill="none" stroke="#781e1e" stroke-width="0.36" stroke-linecap="square" stroke-linejoin="bevel" d="M0 5.31491C3.61845 5.39029 6.64028 3.96093 6.72279 0" sodipodi:nodetypes="cc"/><path id="shape2" transform="translate(14.3339008861604, 8.74449502438543)" fill="none" stroke="#781e1e" stroke-width="0.36" stroke-linecap="square" stroke-linejoin="bevel" d="M0 3.44773C0.0255999 2.21882 1.74877 -1.35521 3.57309 0.546735" sodipodi:nodetypes="cc"/><path id="shape3" transform="translate(17.8261171639412, 9.2912303580575)" fill="none" stroke="#781e1e" stroke-width="0.36" stroke-linecap="square" stroke-linejoin="bevel" d="M0.0808776 0C1.96789 1.96731 2.09627 5.83943 0 7.85015" sodipodi:nodetypes="cc"/><path id="shape4" transform="translate(9.87926876027555, 15.7360796478152)" fill="none" stroke="#781e1e" stroke-width="0.36" stroke-linecap="square" stroke-linejoin="bevel" d="M7.94685 1.4053C6.60817 1.37741 -0.0525215 2.53629 0.000312582 0" sodipodi:nodetypes="cc"/><path id="shape5" transform="translate(9.19925304535946, 9.80673256544627)" fill="none" stroke="#781e1e" stroke-width="0.36" stroke-linecap="square" stroke-linejoin="bevel" d="M0.680328 5.92935C0.734832 3.31289 -2.24723 -0.123827 3.86186 0.00343346" sodipodi:nodetypes="cc"/><path id="shape6" transform="translate(13.0611081977904, 6.53395268554506)" fill="none" stroke="#781e1e" stroke-width="0.36" stroke-linecap="square" stroke-linejoin="bevel" d="M0 3.27621C2.0114 4.33484 5.35567 2.09124 5.39923 0" sodipodi:nodetypes="cc"/><path id="shape7" transform="translate(15.6187157812976, 2.09426143340945)" fill="none" stroke="#781e1e" stroke-width="0.36" stroke-linecap="square" stroke-linejoin="bevel" d="M2.84162 4.43969C2.38546 2.96984 2.30222 0.0479582 0 0" sodipodi:nodetypes="cc"/><path id="shape8" transform="translate(7.36152746983292, 2.09242739587124)" fill="none" stroke="#781e1e" stroke-width="0.36" stroke-linecap="square" stroke-linejoin="bevel" d="M8.25719 0.00183404C5.13974 -0.0631063 0.0829361 1.59273 0 5.57406" sodipodi:nodetypes="cc"/><path id="shape9" transform="translate(7.35856399029556, 7.66648939380599)" fill="none" stroke="#781e1e" stroke-width="0.36" stroke-linecap="square" stroke-linejoin="bevel" d="M0.00296348 5.81493e-07C-0.0973467 -0.00208901 2.3673 5.62819 4.59585 5.67461" sodipodi:nodetypes="cc"/><path id="shape10" transform="translate(11.9544183692065, 13.3411001442598)" fill="none" stroke="#781e1e" stroke-width="0.36" stroke-linecap="square" stroke-linejoin="bevel" d="M0 0C2.28556 0.0476112 4.73475 3.23127 5.18152 5.19097" sodipodi:nodetypes="cc"/><path id="shape11" transform="translate(11.408824000019, 17.7102314014121)" fill="none" stroke="#781e1e" stroke-width="0.36" stroke-linecap="square" stroke-linejoin="bevel" d="M5.72712 0.821836C5.1497 3.89071 0.926146 1.45394 0 0" sodipodi:nodetypes="cc"/><path id="shape12" transform="translate(10.0005115174542, 8.23618210491788)" fill="none" stroke="#781e1e" stroke-width="0.36" stroke-linecap="square" stroke-linejoin="bevel" d="M1.40831 9.47405C-1.3838 5.97796 0.824165 3.791 0.903136 0" sodipodi:nodetypes="cc"/><path id="shape13" transform="translate(4.30307455790384, 5.34179263377678)" fill="none" stroke="#781e1e" stroke-width="0.36" stroke-linecap="square" stroke-linejoin="bevel" d="M6.60057 2.89439C6.69278 -1.53174 -0.853588 -0.779547 0.0800135 4.4529" sodipodi:nodetypes="cc"/><path id="shape14" transform="translate(4.38211052904357, 9.79469365666308)" fill="none" stroke="#781e1e" stroke-width="0.36" stroke-linecap="square" stroke-linejoin="bevel" d="M0.000977504 0C-0.0942681 4.57224 6.80514 5.45593 5.69195 0.57313" sodipodi:nodetypes="cc"/><path id="shape15" transform="translate(0.836665130733413, 8.04353196576173)" fill="none" stroke="#781e1e" stroke-width="0.36" stroke-linecap="square" stroke-linejoin="bevel" d="M9.23739 2.32429C9.29455 -0.419635 0.0442687 -0.737101 0 1.38801" sodipodi:nodetypes="cc"/><path id="shape16" transform="translate(0.835944253086685, 9.43153910356968)" fill="none" stroke="#781e1e" stroke-width="0.36" stroke-linecap="square" stroke-linejoin="bevel" d="M0.000720878 0C-0.0554027 2.6942 3.1776 4.28137 5.48947 4.32953" sodipodi:nodetypes="cc"/><path id="shape17" transform="translate(6.3254099470547, 6.89709963385431)" fill="none" stroke="#781e1e" stroke-width="0.36" stroke-linecap="square" stroke-linejoin="bevel" d="M0 6.86397C1.05461 5.85241 5.09916 -2.59152 8.35013 0.797774" sodipodi:nodetypes="cc"/><path id="shape18" transform="translate(13.1205023701428, 7.69487376001917)" fill="none" stroke="#781e1e" stroke-width="0.36" stroke-linecap="square" stroke-linejoin="bevel" d="M1.55504 0C1.52627 1.38085 6.31225 9.31467 0 9.18318" sodipodi:nodetypes="cc"/><path id="shape19" transform="translate(6.09962033925333, 5.79301939132278)" fill="none" stroke="#781e1e" stroke-width="0.36" stroke-linecap="square" stroke-linejoin="bevel" d="M7.02088 11.085C6.23231 8.98795 -4.91947 3.55743 2.58202 0" sodipodi:nodetypes="cc"/><path id="shape20" transform="translate(8.07403583566226, 3.62777912634509)" fill="none" stroke="#781e1e" stroke-width="0.36" stroke-linecap="square" stroke-linejoin="bevel" d="M0.607607 2.16524C-2.45253 2.10149 6.90408 -1.05634 9.61264 0.369205" sodipodi:nodetypes="cc"/><path id="shape21" transform="translate(17.6866771133875, 3.99698449706439)" fill="none" stroke="#781e1e" stroke-width="0.36" stroke-linecap="square" stroke-linejoin="bevel" d="M0 0C1.76755 0.830082 6.44842 3.04469 3.43026 5.93967" sodipodi:nodetypes="cc"/><path id="shape22" transform="translate(8.61452483649037, 9.01500558511492)" fill="none" stroke="#781e1e" stroke-width="0.36" stroke-linecap="square" stroke-linejoin="bevel" d="M12.5024 0.921648C12.2052 -0.381939 10.6063 2.86348 9.43189 3.50251C3.99393 6.46142 3.15841 0.0657937 0 0" sodipodi:nodetypes="ccc"/><path id="shape23" transform="translate(7.22448341241921, 6.79104031041028)" fill="none" stroke="#781e1e" stroke-width="0.36" stroke-linecap="square" stroke-linejoin="bevel" d="M1.39004 2.22397C-1.27171 2.16852 0.480598 -0.0265534 1.76697 0.00024335" sodipodi:nodetypes="cc"/><path id="shape24" transform="translate(8.47663876544844, 5.64882760715679)" fill="none" stroke="#781e1e" stroke-width="0.36" stroke-linecap="square" stroke-linejoin="bevel" d="M0.514813 1.14246C2.34393 1.18056 -0.805372 -0.491021 0.205004 0.144192" sodipodi:nodetypes="cc"/><path id="shape25" transform="translate(8.59172610566856, 5.75726418634269)" fill="none" stroke="#781e1e" stroke-width="0.36" stroke-linecap="square" stroke-linejoin="bevel" d="M0.0899168 0.0357552C-0.361327 -0.340917 1.03303 2.37348 1.0245 2.7827" sodipodi:nodetypes="cc"/><path id="shape26" transform="translate(6.51043532998734, 8.53996710730339)" fill="none" stroke="#781e1e" stroke-width="0.36" stroke-linecap="square" stroke-linejoin="bevel" d="M3.1058 0C3.05503 2.43692 3.26065 6.32602 0 6.25809" sodipodi:nodetypes="cc"/><path id="shape27" transform="translate(3.67767969813842, 8.97456676476843)" fill="none" stroke="#781e1e" stroke-width="0.36" stroke-linecap="square" stroke-linejoin="bevel" d="M2.83276 5.8235C0.00161108 5.76452 -0.899241 1.83302 1.01177 0" sodipodi:nodetypes="cc"/><path id="shape28" transform="translate(4.68945039476906, 8.97456676476843)" fill="none" stroke="#781e1e" stroke-width="0.36" stroke-linecap="square" stroke-linejoin="bevel" d="M0 0C1.68575 0.0351164 1.60084 6.47226 1.63596 4.7865" sodipodi:nodetypes="cc"/><path id="shape29" transform="translate(6.3254099470547, 13.761071510082)" fill="none" stroke="#781e1e" stroke-width="0.36" stroke-linecap="square" stroke-linejoin="bevel" d="M0 0C0.189773 2.10692 3.56915 5.40533 5.75466 5.45086" sodipodi:nodetypes="cc"/><path id="shape30" transform="translate(12.0800742014313, 12.0355925071996)" fill="none" stroke="#781e1e" stroke-width="0.36" stroke-linecap="square" stroke-linejoin="bevel" d="M0 7.17634C5.13245 7.28325 8.51793 4.95773 8.62121 0" sodipodi:nodetypes="cc"/><path id="shape31" transform="translate(12.7542991092957, 7.24552513825234)" fill="none" stroke="#781e1e" stroke-width="0.36" stroke-linecap="square" stroke-linejoin="bevel" d="M7.94698 4.79007C4.57935 -2.3112 -2.6852 -0.428064 1.03227 3.44759" sodipodi:nodetypes="cc"/><path id="shape32" transform="translate(13.7865732306632, 8.64665938030736)" fill="none" stroke="#781e1e" stroke-width="0.36" stroke-linecap="square" stroke-linejoin="bevel" d="M0 2.04645C2.55002 5.37374 4.83379 4.09225 4.91903 0" sodipodi:nodetypes="cc"/><path id="shape33" transform="translate(14.2005006642423, 5.32649790256557)" fill="none" stroke="#781e1e" stroke-width="0.36" stroke-linecap="square" stroke-linejoin="bevel" d="M4.5051 3.32016C4.55908 0.729085 1.53631 -1.55233 0 1.36667" sodipodi:nodetypes="cc"/><path id="shape34" transform="translate(13.924537752563, 6.69316753977412)" fill="none" stroke="#781e1e" stroke-width="0.36" stroke-linecap="square" stroke-linejoin="bevel" d="M0.275963 0C-1.47453 3.32596 5.64936 1.8476 6.31203 1.86141" sodipodi:nodetypes="cc"/><path id="shape35" transform="translate(19.1642822991878, 4.48234472419289)" fill="none" stroke="#781e1e" stroke-width="0.36" stroke-linecap="square" stroke-linejoin="bevel" d="M1.07228 4.07223C3.34529 4.11958 1.8264 0.0380462 0 0" sodipodi:nodetypes="cc"/><path id="shape36" transform="translate(17.5494520250061, 1.73263441629773)" fill="none" stroke="#781e1e" stroke-width="0.36" stroke-linecap="square" stroke-linejoin="bevel" d="M1.61483 2.74971C0.364207 2.72366 -0.684535 -0.0256674 0.55632 0.000181129" sodipodi:nodetypes="cc"/><path id="shape37" transform="translate(17.2882343555876, 1.73281554498118)" fill="none" stroke="#781e1e" stroke-width="0.36" stroke-linecap="square" stroke-linejoin="bevel" d="M0.817537 0C2.05784 0.652787 1.46738 3.56753 0 3.53696" sodipodi:nodetypes="cc"/><path id="shape38" transform="translate(13.07314271538, 3.28099714019456)" fill="none" stroke="#781e1e" stroke-width="0.36" stroke-linecap="square" stroke-linejoin="bevel" d="M4.21509 1.98878C3.77828 2.40776 0.859513 0.0179047 0 0" sodipodi:nodetypes="cc"/><path id="shape39" transform="translate(3.30565068385436, 3.2800916317626)" fill="none" stroke="#781e1e" stroke-width="0.36" stroke-linecap="square" stroke-linejoin="bevel" d="M9.76749 0.000905508C6.78459 -0.0612321 0.0744474 3.08363 0 6.65746" sodipodi:nodetypes="cc"/><path id="shape40" transform="translate(3.29419077911757, 9.93755103654699)" fill="none" stroke="#781e1e" stroke-width="0.36" stroke-linecap="square" stroke-linejoin="bevel" d="M0.0114599 0C-0.0525306 3.07185 0.0848456 4.25477 2.19131 6.45085" sodipodi:nodetypes="cc"/><path id="shape41" transform="translate(4.03026343619829, 14.8290475974142)" fill="none" stroke="#781e1e" stroke-width="0.36" stroke-linecap="square" stroke-linejoin="bevel" d="M0 0C1.07919 0.752391 -0.274954 3.79621 2.56452 3.85536" sodipodi:nodetypes="cc"/><path id="shape42" transform="translate(6.59477954329963, 15.1250676920693)" fill="none" stroke="#781e1e" stroke-width="0.36" stroke-linecap="square" stroke-linejoin="bevel" d="M0 3.55934C3.0207 3.62227 3.91137 3.38778 5.69441 0" sodipodi:nodetypes="cc"/><path id="shape43" transform="translate(8.66871328674303, 10.3798745656682)" fill="none" stroke="#781e1e" stroke-width="0.36" stroke-linecap="square" stroke-linejoin="bevel" d="M3.62047 4.74519C3.67464 2.14505 -0.0122247 0.588305 3.04848e-05 0" sodipodi:nodetypes="cc"/><path id="shape44" transform="translate(8.21517602683677, 6.90242554567765)" fill="none" stroke="#781e1e" stroke-width="0.36" stroke-linecap="square" stroke-linejoin="bevel" d="M0.453568 3.47745C-0.74093 3.45257 0.416594 -2.51195 4.01289 1.23737" sodipodi:nodetypes="cc"/><path id="shape45" transform="translate(12.2233521383904, 8.1397951668012)" fill="none" stroke="#781e1e" stroke-width="0.36" stroke-linecap="square" stroke-linejoin="bevel" d="M0.00471775 0C-0.0166025 1.02348 0.0424993 2.15394 0.0210752 3.1824" sodipodi:nodetypes="cc"/><path id="shape46" transform="translate(11.9280542607183, 11.3221948207757)" fill="none" stroke="#781e1e" stroke-width="0.36" stroke-linecap="square" stroke-linejoin="bevel" d="M0.316373 0C-1.00972 2.51959 2.15376 3.59226 3.87743 3.62817" sodipodi:nodetypes="cc"/><path id="shape47" transform="translate(15.8054867613622, 11.3480012458719)" fill="none" stroke="#781e1e" stroke-width="0.36" stroke-linecap="square" stroke-linejoin="bevel" d="M0 3.60236C2.28627 4.2248 1.62275 1.08772 1.64541 0" sodipodi:nodetypes="cc"/><path id="shape48" transform="translate(14.6704550934968, 7.44081386329654)" fill="none" stroke="#781e1e" stroke-width="0.36" stroke-linecap="square" stroke-linejoin="bevel" d="M2.78044 3.90719C2.54209 3.13919 -0.131884 -1.06423 0.00508405 0.25406" sodipodi:nodetypes="cc"/><path id="shape49" transform="translate(11.6695558899676, 7.17767548637377)" fill="none" stroke="#781e1e" stroke-width="0.36" stroke-linecap="square" stroke-linejoin="bevel" d="M3.00598 0.517198C2.87972 -0.0366487 0.586872 0.0122253 0 0" sodipodi:nodetypes="cc"/><path id="shape50" transform="translate(10.1501526861448, 4.07414760979839)" fill="none" stroke="#781e1e" stroke-width="0.36" stroke-linecap="square" stroke-linejoin="bevel" d="M1.5194 3.10353C-0.588703 3.05961 -0.363012 -0.0350932 1.33609 0.000301302" sodipodi:nodetypes="cc"/><path id="shape51" transform="translate(11.4862473789149, 4.07444891203451)" fill="none" stroke="#781e1e" stroke-width="0.36" stroke-linecap="square" stroke-linejoin="bevel" d="M0 0C1.98448 0.0413392 1.45948 2.27711 2.71425 2.61872" sodipodi:nodetypes="cc"/><path id="shape52" transform="translate(14.2005006642423, 6.53395268554506)" fill="none" stroke="#781e1e" stroke-width="0.36" stroke-linecap="square" stroke-linejoin="bevel" d="M0 0.159215C0.279982 -0.000940343 4.59544 0.467439 4.25984 0" sodipodi:nodetypes="cc"/><path id="shape53" transform="translate(18.4603376671224, 6.53395268554506)" fill="none" stroke="#781e1e" stroke-width="0.36" stroke-linecap="square" stroke-linejoin="bevel" d="M0 0C1.61886 1.68774 2.45952 0.960562 2.39326 4.14107" sodipodi:nodetypes="cc"/><path id="shape54" transform="translate(18.3811892091316, 10.6750259653648)" fill="none" stroke="#781e1e" stroke-width="0.36" stroke-linecap="square" stroke-linejoin="bevel" d="M2.47241 0C2.44199 1.46034 2.55389 7.6469 0 7.5937" sodipodi:nodetypes="cc"/><path id="shape55" transform="translate(13.5340847936349, 14.2169537236655)" fill="none" stroke="#781e1e" stroke-width="0.36" stroke-linecap="square" stroke-linejoin="bevel" d="M4.8471 4.05178C1.22977 7.52148 -1.38817 -0.0453557 0.79896 0.000205016" sodipodi:nodetypes="cc"/><path id="shape56" transform="translate(14.3327649385823, 13.8294377580033)" fill="none" stroke="#781e1e" stroke-width="0.36" stroke-linecap="square" stroke-linejoin="bevel" d="M0.000279563 0.387721C-0.0360245 2.13049 3.47259 -0.0358518 5.21535 0.000452254" sodipodi:nodetypes="cc"/><path id="shape57" transform="translate(19.548117283382, 13.8298900115409)" fill="none" stroke="#781e1e" stroke-width="0.36" stroke-linecap="square" stroke-linejoin="bevel" d="M0 0C1.73219 0.0360836 2.97158 0.18474 2.92681 2.33387" sodipodi:nodetypes="cc"/><path id="shape58" transform="translate(22.4740933276169, 16.1637584708638)" fill="none" stroke="#781e1e" stroke-width="0.36" stroke-linecap="square" stroke-linejoin="bevel" d="M0.000838232 0C-0.058202 2.83421 3.01577 2.70763 4.73744 2.7435" sodipodi:nodetypes="cc"/><path id="shape59" transform="translate(27.2115321192268, 18.4925249675351)" fill="none" stroke="#781e1e" stroke-width="0.36" stroke-linecap="square" stroke-linejoin="bevel" d="M0 0.414731C11.301 -4.16315 8.48778 30.9092 8.7221 19.6606" sodipodi:nodetypes="cc"/><path id="shape60" transform="translate(36.0232426700441, 40.4726279856069)" fill="none" stroke="#781e1e" stroke-width="0.36" stroke-linecap="square" stroke-linejoin="bevel" d="M0.00691307 0C-0.0412353 2.31135 0.179605 4.62309 0.131457 6.93443" sodipodi:nodetypes="cc"/><path id="shape61" transform="translate(36.1531550831349, 47.407062640401)" fill="none" stroke="#781e1e" stroke-width="0.36" stroke-linecap="square" stroke-linejoin="bevel" d="M0.0015444 0C-0.0195366 1.01199 0.160202 2.6312 1.47737 2.65864" sodipodi:nodetypes="cc"/><path id="shape62" transform="translate(37.6305292321436, 48.1150228306235)" fill="none" stroke="#781e1e" stroke-width="0.36" stroke-linecap="square" stroke-linejoin="bevel" d="M0 1.95067C0.743931 1.81794 0.868616 0.636645 0.723473 0" sodipodi:nodetypes="cc"/><path id="shape63" transform="translate(37.0048602543378, 47.0267060097121)" fill="none" stroke="#781e1e" stroke-width="0.36" stroke-linecap="square" stroke-linejoin="bevel" d="M1.34914 1.08832C1.14137 0.725084 0.907708 -0.576056 0 0.294606" sodipodi:nodetypes="cc"/><path id="shape64" transform="translate(36.1331588017134, 47.3212180236778)" fill="none" stroke="#781e1e" stroke-width="0.36" stroke-linecap="square" stroke-linejoin="bevel" d="M0.871701 9.42376e-05C0.138942 -0.0151701 0.29672 1.82861 0 2.11322" sodipodi:nodetypes="cc"/><path id="shape65" transform="translate(36.1299872685315, 49.4344358449113)" fill="none" stroke="#781e1e" stroke-width="0.36" stroke-linecap="square" stroke-linejoin="bevel" d="M0.00317153 0C-0.0515895 2.62879 0.603511 3.37892 1.91292 5.66802" sodipodi:nodetypes="cc"/><path id="shape66" transform="translate(38.0429086453465, 55.1024587901841)" fill="none" stroke="#781e1e" stroke-width="0.36" stroke-linecap="square" stroke-linejoin="bevel" d="M0 0C2.68334 4.36408 5.59907 9.96889 3.31094 15.3608" sodipodi:nodetypes="cc"/><path id="shape67" transform="translate(38.3386534147061, 70.4632343923164)" fill="none" stroke="#781e1e" stroke-width="0.36" stroke-linecap="square" stroke-linejoin="bevel" d="M3.01519 0C2.82266 0.387653 -0.0532759 4.96964 0.000751645 2.37606" sodipodi:nodetypes="cc"/><path id="shape68" transform="translate(38.3394050598343, 71.9150882105891)" fill="none" stroke="#781e1e" stroke-width="0.36" stroke-linecap="square" stroke-linejoin="bevel" d="M0 0.92421C0.0146186 0.222449 0.40892 -0.0119347 1.0041 0.000463739" sodipodi:nodetypes="cc"/><path id="shape69" transform="translate(39.3430472405951, 71.9155519492906)" fill="none" stroke="#781e1e" stroke-width="0.36" stroke-linecap="square" stroke-linejoin="bevel" d="M0.000462066 0C-0.0133964 0.665271 0.289209 1.57651 0.272526 2.37737" sodipodi:nodetypes="cc"/><path id="shape70" transform="translate(36.1683940252988, 74.2929265322085)" fill="none" stroke="#781e1e" stroke-width="0.36" stroke-linecap="square" stroke-linejoin="bevel" d="M3.44718 0C3.38806 2.83795 0.0632755 4.20678 0 7.2443" sodipodi:nodetypes="cc"/><path id="shape71" transform="translate(35.9899166485411, 81.5372310266808)" fill="none" stroke="#781e1e" stroke-width="0.36" stroke-linecap="square" stroke-linejoin="bevel" d="M0.178477 0C-0.452327 1.25115 0.729456 5.12074 1.53884 5.96456" sodipodi:nodetypes="cc"/><path id="shape72" transform="translate(37.5287587327615, 87.5017931412657)" fill="none" stroke="#781e1e" stroke-width="0.36" stroke-linecap="square" stroke-linejoin="bevel" d="M0 0C0.820326 1.28782 1.93058 2.37968 2.42362 3.96836" sodipodi:nodetypes="cc"/><path id="shape73" transform="translate(39.7604177858365, 91.4701486114676)" fill="none" stroke="#781e1e" stroke-width="0.36" stroke-linecap="square" stroke-linejoin="bevel" d="M0.191959 0C0.165791 1.25615 1.04644 4.06245 0 5.06618" sodipodi:nodetypes="cc"/><path id="shape74" transform="translate(38.1790751795322, 96.5363325743864)" fill="none" stroke="#781e1e" stroke-width="0.36" stroke-linecap="square" stroke-linejoin="bevel" d="M1.58134 0C1.25892 0.309264 0.469257 1.24438 0 1.2346" sodipodi:nodetypes="cc"/><path id="shape75" transform="translate(37.572334647856, 96.724706397769)" fill="none" stroke="#781e1e" stroke-width="0.36" stroke-linecap="square" stroke-linejoin="bevel" d="M0.606741 1.04623C0.132324 1.03635 -0.22422 0.375837 0.167609 0" sodipodi:nodetypes="cc"/><path id="shape76" transform="translate(37.7399437824455, 96.3852607992604)" fill="none" stroke="#781e1e" stroke-width="0.36" stroke-linecap="square" stroke-linejoin="bevel" d="M0 0.339446C0.00869179 -0.0778016 0.902183 -0.0992988 0.895655 0.214064" sodipodi:nodetypes="cc"/><path id="shape77" transform="translate(38.6354306535541, 96.599324750303)" fill="none" stroke="#781e1e" stroke-width="0.36" stroke-linecap="square" stroke-linejoin="bevel" d="M0.000168531 0C-0.00696409 0.3424 0.214723 0.763686 0.205938 1.18541" sodipodi:nodetypes="cc"/><path id="shape78" transform="translate(37.1784442597281, 97.7847332915851)" fill="none" stroke="#781e1e" stroke-width="0.36" stroke-linecap="square" stroke-linejoin="bevel" d="M1.66292 0C1.63625 1.28066 0.57761 2.67053 0 3.768" sodipodi:nodetypes="cc"/><path id="shape79" transform="translate(36.3078877996444, 101.552729505799)" fill="none" stroke="#781e1e" stroke-width="0.36" stroke-linecap="square" stroke-linejoin="bevel" d="M0.870556 0C-0.256662 1.08121 0.0454336 3.65406 0.0157047 5.08118" sodipodi:nodetypes="cc"/><path id="shape80" transform="translate(36.3222173614634, 106.633912423159)" fill="none" stroke="#781e1e" stroke-width="0.36" stroke-linecap="square" stroke-linejoin="bevel" d="M0.00137517 0C-0.052043 2.56433 1.46224 5.48532 2.54738 7.77354" sodipodi:nodetypes="cc"/><path id="shape81" transform="translate(38.869598321444, 114.407454420266)" fill="none" stroke="#781e1e" stroke-width="0.36" stroke-linecap="square" stroke-linejoin="bevel" d="M0 0C0.606148 0.631939 0.820578 0.161133 1.37918 0.172769" sodipodi:nodetypes="cc"/><path id="shape82" transform="translate(40.0706028003065, 113.453005748222)" fill="none" stroke="#781e1e" stroke-width="0.36" stroke-linecap="square" stroke-linejoin="bevel" d="M0.178174 1.12722C0.188107 0.650356 0.176543 0.372274 0 0" sodipodi:nodetypes="cc"/><path id="shape83" transform="translate(38.9439846680553, 113.323387149403)" fill="none" stroke="#781e1e" stroke-width="0.36" stroke-linecap="square" stroke-linejoin="bevel" d="M1.12662 0.129619C0.986949 -0.1649 0.174559 0.111562 0 0.278997" sodipodi:nodetypes="cc"/><path id="shape84" transform="translate(38.105922847795, 113.602384006425)" fill="none" stroke="#781e1e" stroke-width="0.36" stroke-linecap="square" stroke-linejoin="bevel" d="M0.838062 0C0.376797 0.218745 0.218131 1.09491 0 1.50936" sodipodi:nodetypes="cc"/><path id="shape85" transform="translate(36.2342301194685, 115.111742501745)" fill="none" stroke="#781e1e" stroke-width="0.36" stroke-linecap="square" stroke-linejoin="bevel" d="M1.87169 0C1.85557 0.774124 0.380458 2.00369 0 2.72656" sodipodi:nodetypes="cc"/><path id="shape86" transform="translate(30.7222709669605, 117.838306978488)" fill="none" stroke="#781e1e" stroke-width="0.36" stroke-linecap="square" stroke-linejoin="bevel" d="M5.51196 0C3.95854 2.61482 1.75039 4.65535 0 7.16602" sodipodi:nodetypes="cc"/><path id="shape87" transform="translate(29.2807409144731, 125.004331584666)" fill="none" stroke="#781e1e" stroke-width="0.36" stroke-linecap="square" stroke-linejoin="bevel" d="M1.44153 0C0.919888 0.374514 0.244099 3.85724 0 3.85215" sodipodi:nodetypes="cc"/><path id="shape88" transform="translate(28.8938319057776, 128.856485332519)" fill="none" stroke="#781e1e" stroke-width="0.36" stroke-linecap="square" stroke-linejoin="bevel" d="M0.386909 0C0.186435 0.650085 -0.520678 4.56913 0.694545 4.59444" sodipodi:nodetypes="cc"/><path id="shape89" transform="translate(29.5883765228706, 133.450927800672)" fill="none" stroke="#781e1e" stroke-width="0.36" stroke-linecap="square" stroke-linejoin="bevel" d="M0 0C0.62991 0.656711 3.49945 0.556131 2.74239 2.67886" sodipodi:nodetypes="cc"/><path id="shape90" transform="translate(31.721480793738, 136.129789033511)" fill="none" stroke="#781e1e" stroke-width="0.36" stroke-linecap="square" stroke-linejoin="bevel" d="M0.609288 0C0.572057 1.78727 -1.2761 11.5569 1.65293 11.6179" sodipodi:nodetypes="cc"/><path id="shape91" transform="translate(33.3744120029833, 146.666768056516)" fill="none" stroke="#781e1e" stroke-width="0.36" stroke-linecap="square" stroke-linejoin="bevel" d="M0 1.08089C0.427935 1.52703 1.54233 0.029034 0.148561 0" sodipodi:nodetypes="cc"/><path id="shape92" transform="translate(32.7182130524165, 146.666466995112)" fill="none" stroke="#781e1e" stroke-width="0.36" stroke-linecap="square" stroke-linejoin="bevel" d="M0.80476 0.000301061C-0.0577407 -0.0176659 0.359375 0.773233 0 1.11794" sodipodi:nodetypes="cc"/><path id="shape93" transform="translate(32.7169498202794, 147.784407903448)" fill="none" stroke="#781e1e" stroke-width="0.36" stroke-linecap="square" stroke-linejoin="bevel" d="M0.00126323 0C-0.0487554 2.40113 1.39924 4.66591 2.10059 6.92578" sodipodi:nodetypes="cc"/><path id="shape94" transform="translate(34.7204465132493, 154.710190566719)" fill="none" stroke="#781e1e" stroke-width="0.36" stroke-linecap="square" stroke-linejoin="bevel" d="M0.0970928 0C0.856599 3.33144 1.59235 8.89635 0 11.9218" sodipodi:nodetypes="cc"/><path id="shape95" transform="translate(31.193626420814, 166.632014682667)" fill="none" stroke="#781e1e" stroke-width="0.36" stroke-linecap="square" stroke-linejoin="bevel" d="M3.52682 0C5.58773 5.27591 -4.64134 12.9885 2.67843 20.6197" sodipodi:nodetypes="cc"/>
</svg>
